<svg xmlns="http://www.w3.org/2000/svg" xmlns:xlink="http://www.w3.org/1999/xlink" width="500" zoomAndPan="magnify" viewBox="0 0 375 374.999991" height="500" preserveAspectRatio="xMidYMid meet" version="1.0"><defs><filter x="0%" y="0%" width="100%" height="100%" id="d6d8dd914a"><feColorMatrix values="0 0 0 0 1 0 0 0 0 1 0 0 0 0 1 0 0 0 1 0" color-interpolation-filters="sRGB"/></filter><g/><clipPath id="bfd804eea9"><path d="M 85.191406 79.191406 L 294.441406 79.191406 L 294.441406 288.441406 L 85.191406 288.441406 Z M 85.191406 79.191406 " clip-rule="nonzero"/></clipPath><clipPath id="db04522921"><path d="M 189.816406 79.191406 C 132.035156 79.191406 85.191406 126.035156 85.191406 183.816406 C 85.191406 241.597656 132.035156 288.441406 189.816406 288.441406 C 247.597656 288.441406 294.441406 241.597656 294.441406 183.816406 C 294.441406 126.035156 247.597656 79.191406 189.816406 79.191406 " clip-rule="nonzero"/></clipPath><mask id="a71cea6946"><g filter="url(#d6d8dd914a)"><rect x="-37.5" width="450" fill="#000000" y="-37.499999" height="449.999989" fill-opacity="0.8471"/></g></mask><clipPath id="735ae87a85"><path d="M 0.710938 13 L 64 13 L 64 136 L 0.710938 136 Z M 0.710938 13 " clip-rule="nonzero"/></clipPath><clipPath id="27f995e45c"><path d="M 61 144 L 133 144 L 133 160.902344 L 61 160.902344 Z M 61 144 " clip-rule="nonzero"/></clipPath><clipPath id="11d0330ba4"><path d="M 34 0.402344 L 71 0.402344 L 71 32 L 34 32 Z M 34 0.402344 " clip-rule="nonzero"/></clipPath><clipPath id="39fc9722a6"><path d="M 63 9 L 166.460938 9 L 166.460938 120 L 63 120 Z M 63 9 " clip-rule="nonzero"/></clipPath><clipPath id="bb7e0608b2"><rect x="0" width="167" y="0" height="162"/></clipPath></defs><rect x="-37.5" width="450" fill="#ffffff" y="-37.499999" height="449.999989" fill-opacity="1"/><rect x="-37.5" width="450" fill="#ffffff" y="-37.499999" height="449.999989" fill-opacity="1"/><rect x="-37.5" width="450" fill="#f6f6f6" y="-37.499999" height="449.999989" fill-opacity="1"/><g clip-path="url(#bfd804eea9)"><g clip-path="url(#db04522921)"><path stroke-linecap="butt" transform="matrix(0.750504, 0, 0, 0.750504, 85.19151, 79.191506)" fill="none" stroke-linejoin="miter" d="M 139.406114 -0.00013291 C 62.416221 -0.00013291 -0.000138381 62.416227 -0.000138381 139.406119 C -0.000138381 216.396012 62.416221 278.812372 139.406114 278.812372 C 216.396007 278.812372 278.812366 216.396012 278.812366 139.406119 C 278.812366 62.416227 216.396007 -0.00013291 139.406114 -0.00013291 " stroke="#004225" stroke-width="4" stroke-opacity="1" stroke-miterlimit="4"/></g></g><g mask="url(#a71cea6946)"><g transform="matrix(1, 0, 0, 1, 104, 107)"><g clip-path="url(#bb7e0608b2)"><g clip-path="url(#735ae87a85)"><path fill="#39a8f4" d="M 63.140625 92.511719 C 64.175781 91.558594 64.300781 89.457031 63.089844 88.890625 C 61.507812 88.148438 60.277344 86.632812 58.265625 86.71875 C 57.316406 86.757812 56.324219 86.429688 55.390625 86.132812 C 54.457031 85.839844 53.59375 85.3125 52.660156 85.011719 C 51.703125 84.699219 50.824219 84.496094 50.5 83.296875 C 49.820312 80.777344 48.1875 79.40625 45.484375 79.25 C 44.667969 79.203125 43.855469 78.660156 43.082031 78.257812 C 41.269531 77.3125 39.84375 75.308594 37.355469 76.226562 C 37.113281 76.3125 36.761719 76.046875 36.484375 76.089844 C 34.683594 76.371094 33.066406 74.539062 31.222656 75.789062 C 31.171875 75.398438 31.144531 75.160156 31.121094 74.992188 C 29.011719 75.355469 27.359375 76.3125 26.011719 77.8125 C 24.972656 76.914062 24.125 76.527344 22.808594 76.917969 C 20.953125 77.46875 19.664062 75.792969 20.265625 73.902344 C 20.429688 73.394531 20.578125 72.878906 20.695312 72.484375 C 19.503906 70.390625 17.542969 72.023438 16.070312 71.421875 C 16.378906 69.710938 17.863281 68.476562 17.566406 66.335938 C 16.550781 66.753906 15.257812 66.878906 14.953125 67.492188 C 14.304688 68.808594 13.253906 69.011719 12.105469 69.34375 C 10.234375 69.878906 8.433594 68.644531 8.269531 66.722656 C 8.125 65.074219 9.15625 63.652344 9.09375 62.015625 C 9.085938 61.78125 9.539062 61.492188 9.824219 61.289062 C 10.164062 61.046875 10.554688 60.878906 10.917969 60.671875 C 12.183594 59.949219 13.402344 59.277344 14.960938 60.066406 C 15.433594 60.308594 16.5 60.226562 16.769531 59.882812 C 17.761719 58.609375 18.890625 59.242188 19.996094 59.390625 C 20.402344 59.445312 20.789062 59.707031 21.1875 59.71875 C 22.035156 59.738281 22.335938 60.160156 22.394531 60.949219 C 22.480469 62.074219 23.035156 62.945312 23.957031 63.65625 C 24.769531 62.867188 24.757812 62.027344 24.488281 61.105469 C 23.722656 58.441406 23.832031 58.195312 26.261719 56.847656 C 26.46875 56.734375 26.707031 56.660156 26.890625 56.515625 C 27.585938 55.96875 28.429688 55.5 28.890625 54.792969 C 29.152344 54.390625 28.75 53.578125 28.695312 52.949219 C 28.667969 52.585938 28.742188 52.214844 28.769531 51.824219 C 29.117188 52.226562 29.355469 52.503906 29.59375 52.78125 C 29.8125 52.542969 30.03125 52.308594 30.25 52.070312 C 30.84375 51.421875 31.332031 50.4375 32.058594 50.203125 C 33.179688 49.839844 34.074219 49.457031 34.625 48.363281 C 34.792969 48.03125 35.191406 47.746094 35.550781 47.589844 C 36.691406 47.097656 37.859375 46.671875 39.019531 46.234375 C 39.078125 46.214844 39.179688 46.320312 39.242188 46.359375 C 38.914062 46.707031 38.582031 47.058594 38.074219 47.597656 C 38.757812 47.746094 39.230469 48.015625 39.519531 47.882812 C 40.449219 47.453125 41.304688 46.878906 42.058594 46.433594 C 41.3125 45.828125 40.492188 45.449219 40.160156 44.8125 C 39.800781 44.132812 39.902344 43.210938 39.785156 42.273438 C 39.570312 42.25 39.226562 42.183594 38.882812 42.179688 C 38.484375 42.171875 38.089844 42.222656 37.691406 42.25 C 37.65625 42.121094 37.625 41.996094 37.59375 41.867188 C 38.164062 41.675781 38.726562 41.375 39.308594 41.324219 C 40.261719 41.246094 41.242188 41.433594 42.1875 41.320312 C 42.96875 41.226562 43.851562 41.027344 44.445312 40.5625 C 45.046875 40.09375 45.539062 39.9375 46.207031 40.152344 C 46.886719 39.257812 46.992188 38.496094 45.757812 37.925781 C 45.125 37.632812 44.527344 37.242188 43.96875 36.832031 C 43.402344 36.414062 42.410156 35.859375 42.457031 35.464844 C 42.597656 34.242188 41.601562 33.6875 41.265625 32.78125 C 41.027344 32.140625 40.519531 31.601562 39.941406 30.734375 C 39.71875 31.082031 39.566406 31.542969 39.25 31.761719 C 38.714844 32.132812 38.355469 33.035156 37.4375 32.554688 C 36.640625 32.140625 35.777344 31.835938 35.992188 30.597656 C 36.054688 30.246094 35.667969 29.726562 35.351562 29.429688 C 34.882812 28.992188 34.316406 28.648438 33.753906 28.339844 C 33.410156 28.148438 32.984375 27.96875 32.605469 27.992188 C 31.671875 28.050781 30.742188 28.226562 29.75 28.363281 C 29.523438 29.5625 29.289062 30.824219 28.996094 32.398438 C 29.117188 32.585938 29.460938 33.128906 29.824219 33.65625 C 30.421875 34.519531 30.265625 35.410156 29.449219 35.851562 C 28.203125 36.523438 27.796875 37.378906 28.023438 38.738281 C 28.078125 39.070312 27.628906 39.773438 27.363281 39.800781 C 26.9375 39.839844 26.214844 39.5625 26.074219 39.230469 C 25.695312 38.328125 25.558594 37.324219 25.335938 36.40625 C 24.054688 35.949219 22.703125 35.53125 21.40625 34.980469 C 20.546875 34.621094 19.796875 33.765625 18.941406 33.679688 C 17.148438 33.492188 17.207031 31.359375 15.730469 30.945312 C 15.699219 30.933594 15.746094 30.386719 15.863281 30.140625 C 16.445312 28.90625 17.398438 28.023438 18.574219 27.355469 C 18.917969 27.160156 19.371094 26.972656 19.523438 26.660156 C 19.929688 25.808594 20.425781 25.296875 21.460938 25.441406 C 21.695312 25.472656 22.042969 25.101562 22.246094 24.839844 C 22.636719 24.335938 22.957031 23.777344 23.3125 23.238281 C 25.082031 23.929688 26.183594 22.574219 27.457031 22.28125 C 27.203125 21.476562 27.011719 20.921875 26.859375 20.355469 C 26.707031 19.78125 26.597656 19.195312 26.460938 18.566406 C 26.890625 18.398438 27.375 18.160156 27.882812 18.023438 C 29.042969 17.714844 28.324219 18.820312 28.679688 19.214844 C 29.015625 18.824219 29.3125 18.476562 29.589844 18.15625 C 30.894531 18.65625 30.886719 18.660156 31.738281 20.035156 C 31.84375 20.207031 32.066406 20.339844 32.265625 20.414062 C 33.8125 21.015625 34.058594 21.605469 33.449219 23.015625 C 33.171875 23.652344 33.046875 24.359375 32.789062 25.25 C 32.246094 25.289062 31.414062 25.355469 30.578125 25.398438 C 29.820312 25.433594 29.628906 26.015625 29.785156 26.515625 C 29.871094 26.789062 30.511719 26.910156 30.921875 27.035156 C 31.050781 27.074219 31.238281 26.886719 31.40625 26.816406 C 32.476562 26.355469 33.355469 26.519531 34.0625 27.527344 C 34.324219 27.898438 34.742188 28.335938 35.140625 28.394531 C 36.300781 28.5625 37.484375 28.554688 39.003906 28.632812 C 38.308594 28.046875 37.867188 27.675781 37.394531 27.28125 C 38.203125 26.898438 39.398438 27.71875 39.65625 26.371094 C 38.949219 25.542969 37.546875 25.296875 37.886719 23.679688 C 38.949219 24.347656 39.886719 24.933594 40.835938 25.53125 C 41.457031 24.691406 42 23.960938 42.566406 23.191406 C 42.285156 23.015625 42.148438 22.886719 41.992188 22.839844 C 40.84375 22.480469 39.609375 22.28125 38.574219 21.722656 C 38.074219 21.449219 36.933594 21.167969 37.480469 19.890625 C 37.746094 19.28125 37.414062 18.441406 36.554688 18.085938 C 35.632812 17.703125 34.738281 17.25 33.851562 16.792969 C 33.53125 16.628906 33.128906 16.417969 33.003906 16.128906 C 32.675781 15.382812 32.289062 14.964844 31.382812 15.050781 C 30.953125 15.089844 30.488281 14.757812 30.238281 14.664062 C 30.054688 14.042969 29.992188 13.273438 29.785156 13.234375 C 29.472656 13.175781 29.097656 13.140625 28.75 13.171875 C 27.058594 14.65625 25.429688 16.203125 23.859375 17.816406 C 24.714844 19.40625 24.382812 20.265625 22.414062 21.980469 C 22.140625 21.347656 21.886719 20.765625 21.636719 20.1875 C 10.652344 32.378906 3.175781 47.800781 0.796875 64.859375 C 0.882812 65.144531 1 65.425781 1.15625 65.707031 C 1.375 66.105469 1.699219 66.71875 1.546875 67 C 0.890625 68.199219 1.542969 68.761719 2.4375 69.269531 C 3.257812 69.738281 4.050781 70.3125 4.933594 70.605469 C 6.433594 71.105469 7.863281 71.945312 9.613281 71.410156 C 10.574219 71.117188 11.542969 71.453125 12.410156 72.230469 C 13.085938 72.835938 14.070312 73.304688 14.96875 73.402344 C 16.875 73.609375 17.8125 74.628906 18.0625 76.246094 C 19.65625 77.015625 21.109375 77.722656 22.539062 78.414062 C 23.789062 76.980469 23.886719 76.988281 24.820312 78.460938 C 25.652344 79.777344 25.378906 81.1875 24.222656 82.304688 C 22.902344 83.582031 21.507812 84.859375 21.835938 87.007812 C 21.863281 87.199219 21.699219 87.429688 21.59375 87.628906 C 20.929688 88.917969 20.976562 89.15625 22.136719 90.136719 C 23.277344 91.097656 24.296875 92.039062 24.871094 93.570312 C 25.738281 95.882812 27.105469 97.855469 29.816406 98.582031 C 31.363281 98.996094 31.679688 99.929688 31.496094 101.75 C 31.230469 104.414062 30.8125 107.074219 30.667969 109.746094 C 30.59375 111.105469 30.464844 112.371094 29.878906 113.613281 C 28.929688 115.625 29.648438 117.824219 29.28125 119.910156 C 29.171875 120.539062 29.199219 121.195312 29.203125 121.835938 C 29.203125 121.921875 29.457031 122.003906 29.679688 122.144531 C 29.808594 121.648438 29.914062 121.257812 30.054688 120.722656 C 30.789062 122.886719 29.09375 124.097656 28.496094 125.554688 C 28.960938 125.96875 29.324219 126.296875 29.691406 126.621094 C 29.308594 127.011719 28.925781 127.398438 28.496094 127.832031 C 28.929688 128.957031 28.925781 130.34375 30.144531 131.117188 C 30.066406 131.167969 29.808594 131.339844 29.25 131.710938 C 30.917969 132.792969 32.417969 133.742188 33.890625 134.730469 C 34.9375 135.433594 35.992188 135.257812 37.0625 134.847656 C 37.445312 134.703125 37.816406 134.542969 38.195312 134.386719 C 37.761719 134.191406 37.261719 134.082031 36.910156 133.789062 C 36.199219 133.195312 35.191406 132.59375 35.007812 131.828125 C 34.800781 130.964844 34.386719 129.675781 35.792969 128.976562 C 36.285156 128.730469 36.453125 127.90625 36.871094 127.4375 C 37.410156 126.824219 37.292969 126.378906 36.691406 125.960938 C 36.28125 125.679688 35.847656 125.425781 35.246094 125.042969 C 36.464844 124.003906 37.652344 123.253906 37.839844 121.742188 C 37.871094 121.503906 38.429688 121.328125 38.671875 121.171875 C 38.265625 120.773438 37.820312 120.335938 37.097656 119.628906 C 38.195312 119.628906 39.003906 119.871094 39.398438 119.566406 C 39.855469 119.222656 39.949219 118.398438 40.257812 117.636719 C 40.535156 117.566406 40.992188 117.429688 41.460938 117.339844 C 41.933594 117.253906 42.429688 117.261719 42.890625 117.148438 C 44.332031 116.792969 44.707031 115.890625 44.027344 114.527344 C 43.851562 114.175781 43.695312 113.8125 43.515625 113.421875 C 46.464844 114.125 46.660156 114.011719 48.449219 111.195312 C 48.75 110.726562 49.28125 110.339844 49.785156 110.078125 C 50.851562 109.53125 51.835938 107.976562 51.648438 106.808594 C 51.527344 106.054688 51.679688 105.5 52.375 105.148438 C 53.492188 104.585938 54.566406 103.792969 55.75 103.542969 C 57.214844 103.234375 57.972656 102.585938 58.796875 101.289062 C 59.824219 99.667969 60.324219 98.113281 60.265625 96.269531 C 60.25 95.875 60.269531 95.351562 60.503906 95.09375 C 61.328125 94.183594 62.234375 93.347656 63.140625 92.511719 Z M 63.140625 92.511719 " fill-opacity="1" fill-rule="nonzero"/></g><g clip-path="url(#27f995e45c)"><path fill="#39a8f4" d="M 130.339844 145.175781 C 128.425781 145.640625 126.667969 146.664062 125.289062 148.015625 C 124.476562 148.808594 123.710938 149.359375 122.675781 149.683594 C 122.121094 149.054688 121.949219 148.015625 120.796875 148.25 C 120.625 148.285156 120.234375 147.960938 120.179688 147.742188 C 119.933594 146.777344 119.15625 146.824219 118.460938 146.785156 C 116.925781 146.707031 115.390625 146.707031 113.855469 146.632812 C 112.949219 146.589844 112.113281 146.523438 111.738281 145.359375 C 111.445312 144.460938 109.960938 144.089844 109.109375 144.621094 C 108.191406 145.195312 107.378906 145.941406 106.355469 146.742188 C 104.097656 146.464844 102.171875 147.074219 100.734375 150.015625 C 98.535156 149.355469 98.121094 149.160156 97.40625 148.449219 C 94.515625 150.527344 91.492188 151.574219 87.960938 150.003906 C 87.320312 149.71875 86.066406 149.707031 85.714844 150.113281 C 85 150.933594 84.265625 150.890625 83.472656 150.730469 C 82.265625 150.488281 81.113281 149.890625 79.855469 150.660156 C 79.617188 150.808594 79.054688 150.53125 78.6875 150.347656 C 78.058594 150.035156 77.464844 149.640625 76.964844 149.34375 C 76.488281 149.621094 76.085938 150.058594 75.738281 150.019531 C 74.722656 149.910156 74.21875 151.328125 73.132812 150.808594 C 72.664062 151.878906 71.675781 151.621094 70.820312 151.746094 C 70.636719 151.769531 70.402344 152.027344 70.339844 152.222656 C 69.972656 153.347656 69.03125 153.464844 68.066406 153.679688 C 66.59375 154.003906 64.855469 153.832031 64.085938 155.792969 C 63.191406 155.128906 62.363281 154.582031 61.390625 155.460938 C 61.816406 155.816406 62.207031 156.136719 62.679688 156.527344 C 62.085938 156.917969 61.605469 157.238281 61.121094 157.558594 C 61.128906 157.605469 61.132812 157.65625 61.136719 157.703125 C 68.464844 159.785156 76.195312 160.898438 84.191406 160.898438 C 102.226562 160.898438 118.933594 155.222656 132.636719 145.558594 C 131.726562 145.335938 130.976562 145.023438 130.339844 145.175781 Z M 130.339844 145.175781 " fill-opacity="1" fill-rule="nonzero"/></g><g clip-path="url(#11d0330ba4)"><path fill="#39a8f4" d="M 37.628906 10.574219 C 39.339844 10.25 41.460938 10.121094 43.089844 11.582031 C 44.695312 13.019531 46.351562 14.382812 45.8125 16.910156 C 45.796875 16.980469 45.949219 17.089844 46.019531 17.175781 C 48.078125 17.046875 48.59375 17.324219 48.652344 18.535156 C 48.0625 18.398438 47.453125 18.257812 46.8125 18.109375 C 46.546875 19.039062 45.78125 19.828125 46.824219 20.503906 C 47.859375 21.175781 48.199219 20.117188 48.699219 19.449219 C 49.621094 20.292969 49.390625 21.015625 48.75 21.660156 C 47.445312 22.972656 47.359375 23.769531 48.296875 25.324219 C 48.714844 26.015625 49.089844 26.746094 49.421875 27.492188 C 49.96875 28.730469 51.070312 29.828125 52.179688 30.667969 C 52.949219 31.25 54.121094 31.296875 55.042969 31.558594 C 55.53125 29.9375 56.15625 28.273438 56.511719 26.554688 C 56.714844 25.578125 57.164062 25.15625 58.035156 25.144531 C 58.75 25.136719 59.175781 24.921875 59.660156 24.328125 C 60.628906 23.15625 61.753906 22.226562 63.4375 21.945312 C 64.535156 21.761719 65.566406 20.90625 66.511719 20.199219 C 66.945312 19.875 67.375 19.15625 67.328125 18.660156 C 67.222656 17.542969 66.824219 16.453125 66.601562 15.585938 C 67.054688 14.820312 67.464844 14.160156 67.808594 13.46875 C 67.839844 13.402344 67.433594 13.117188 67.132812 12.847656 C 67.605469 12.730469 67.976562 12.636719 68.332031 12.550781 C 67.820312 11.949219 67.347656 11.390625 66.792969 10.742188 C 67.3125 10.578125 67.679688 10.460938 68.222656 10.289062 C 66.902344 9.082031 66.8125 7.910156 67.960938 6.652344 C 68.082031 6.519531 67.707031 5.929688 67.589844 5.628906 C 69.109375 5.820312 69.492188 4.160156 70.539062 3.363281 C 68.355469 2.710938 66.546875 3.757812 64.542969 4.59375 C 65.015625 3.71875 65.433594 2.9375 65.871094 2.121094 C 64.453125 1.628906 63.195312 1.035156 61.867188 0.773438 C 60.476562 0.503906 59.023438 0.535156 57.59375 0.46875 C 56.203125 0.40625 54.8125 0.402344 53.714844 1.484375 C 52.214844 0.816406 51.203125 2.042969 49.84375 2.464844 C 50.210938 2.960938 50.539062 3.410156 50.867188 3.859375 C 50.785156 3.957031 50.703125 4.054688 50.625 4.152344 C 49.796875 3.472656 48.972656 2.792969 47.960938 1.960938 C 47.847656 2.699219 47.785156 3.09375 47.648438 3.996094 C 47.066406 2.328125 45.742188 3.226562 44.859375 2.414062 C 44.769531 2.328125 44.597656 2.304688 44.375 2.324219 C 42.496094 3.332031 40.660156 4.410156 38.871094 5.554688 C 38.6875 6.519531 38.242188 6.636719 37.355469 6.558594 C 37.351562 6.558594 37.347656 6.558594 37.347656 6.558594 C 36.511719 7.121094 35.6875 7.699219 34.875 8.289062 C 35.132812 8.40625 35.417969 8.539062 35.847656 8.734375 C 35.238281 8.941406 34.796875 9.09375 34.1875 9.300781 C 35.34375 10.121094 35.988281 10.886719 37.628906 10.574219 Z M 37.628906 10.574219 " fill-opacity="1" fill-rule="nonzero"/></g><path fill="#39a8f4" d="M 160.703125 106.242188 C 160.035156 107.347656 159.425781 108.160156 158.207031 108.546875 C 157.589844 108.742188 156.988281 109.03125 156.433594 109.367188 C 155.285156 110.058594 153.9375 110.589844 153.796875 112.226562 C 153.675781 113.664062 153.445312 115.070312 153.765625 116.539062 C 154.191406 118.507812 154.65625 120.519531 153.652344 122.511719 C 153.558594 122.699219 153.851562 123.085938 154.136719 123.558594 C 158.367188 117.253906 161.769531 110.347656 164.1875 102.992188 C 164.171875 102.976562 164.152344 102.957031 164.136719 102.941406 C 162.960938 104.023438 161.5 104.929688 160.703125 106.242188 Z M 160.703125 106.242188 " fill-opacity="1" fill-rule="nonzero"/><path fill="#39a8f4" d="M 158.359375 83.839844 C 157.921875 84.484375 157.710938 84.9375 157.375 85.261719 C 156.25 86.34375 155.144531 87.46875 153.890625 88.378906 C 153.566406 88.613281 152.789062 88.40625 152.699219 89.078125 C 152.617188 89.65625 152.691406 90.273438 152.800781 90.851562 C 152.859375 91.1875 153.128906 91.484375 153.285156 91.808594 C 153.839844 92.933594 156.601562 93.761719 157.257812 92.8125 C 158.050781 91.660156 158.839844 90.160156 158.78125 88.851562 C 158.71875 87.523438 158.679688 86.445312 159.675781 85.453125 C 159.242188 84.925781 158.878906 84.476562 158.359375 83.839844 Z M 158.359375 83.839844 " fill-opacity="1" fill-rule="nonzero"/><path fill="#39a8f4" d="M 107.667969 112.40625 C 108.15625 112.28125 108.765625 111.839844 108.9375 111.386719 C 109.941406 108.707031 110.886719 106.003906 111.738281 103.269531 C 111.996094 102.433594 112.207031 101.425781 111.210938 100.5625 C 110.3125 102.019531 109.40625 103.289062 107.8125 103.933594 C 107.445312 104.078125 107.367188 105.027344 107.230469 105.625 C 107.097656 106.226562 107.242188 106.96875 106.9375 107.433594 C 106.074219 108.742188 106.121094 110.039062 106.707031 111.359375 C 106.898438 111.792969 107.441406 112.464844 107.667969 112.40625 Z M 107.667969 112.40625 " fill-opacity="1" fill-rule="nonzero"/><path fill="#39a8f4" d="M 110.363281 15.371094 C 110.839844 15.671875 111.507812 15.851562 111.714844 16.265625 C 112.367188 17.570312 113.164062 17.144531 113.949219 16.777344 C 113.640625 15.875 113.128906 15.066406 113.132812 14.261719 C 113.140625 12.257812 114.753906 10.425781 116.6875 9.839844 C 117.660156 9.546875 118.625 9.203125 119.554688 8.792969 C 119.773438 8.699219 119.835938 8.246094 119.96875 7.960938 C 119.667969 7.917969 119.335938 7.777344 119.0625 7.855469 C 118.320312 8.0625 117.613281 8.554688 116.878906 8.585938 C 114.695312 8.679688 113.074219 9.746094 111.636719 11.246094 C 111.472656 11.417969 111.144531 11.652344 111.179688 11.765625 C 111.628906 13.15625 110.261719 14.117188 110.363281 15.371094 Z M 110.363281 15.371094 " fill-opacity="1" fill-rule="nonzero"/><path fill="#39a8f4" d="M 149.765625 91.882812 C 149.671875 91.871094 149.597656 91.609375 149.519531 91.457031 C 148.890625 90.269531 148.257812 89.082031 147.628906 87.894531 C 147.628906 87.894531 147.644531 87.910156 147.65625 87.921875 L 147.683594 87.949219 C 147.679688 87.9375 147.679688 87.925781 147.675781 87.917969 C 147.664062 87.910156 147.648438 87.90625 147.636719 87.898438 C 146.894531 87.109375 146.097656 86.359375 145.441406 85.503906 C 144.882812 84.777344 144.238281 84.660156 143.308594 84.746094 C 143.40625 85.136719 143.390625 85.480469 143.554688 85.660156 C 145.296875 87.585938 146.308594 89.910156 147.238281 92.28125 C 147.457031 92.839844 147.675781 93.402344 147.964844 93.925781 C 148.417969 94.738281 149.539062 95.230469 149.859375 94.738281 C 150.324219 94.019531 150.671875 93.148438 150.789062 92.300781 C 150.886719 91.554688 150.167969 91.929688 149.765625 91.882812 Z M 149.765625 91.882812 " fill-opacity="1" fill-rule="nonzero"/><path fill="#39a8f4" d="M 67.484375 24.527344 C 67.398438 24.488281 66.898438 25.039062 66.933594 25.09375 C 67.367188 25.777344 67.359375 26.75 68.289062 27.109375 C 70.003906 27.777344 71.308594 27.128906 72.167969 25.015625 C 71.824219 24.695312 71.4375 24.332031 71.125 24.035156 C 69.796875 23.953125 68.777344 25.128906 67.484375 24.527344 Z M 67.484375 24.527344 " fill-opacity="1" fill-rule="nonzero"/><path fill="#39a8f4" d="M 163.535156 89.292969 C 162.625 89.292969 161.902344 89.207031 161.21875 89.320312 C 160.757812 89.398438 160.078125 89.667969 159.953125 90.015625 C 159.386719 91.613281 159.03125 93.269531 159.554688 94.957031 C 159.6875 94.988281 159.820312 95.019531 159.949219 95.050781 C 160.144531 94.546875 160.339844 94.046875 160.539062 93.53125 C 161.03125 94.070312 161.5 94.585938 161.964844 95.097656 C 162.097656 95.015625 162.230469 94.933594 162.359375 94.851562 C 162 93.941406 161.636719 93.027344 161.300781 92.175781 C 161.613281 91.839844 161.875 91.550781 162.238281 91.15625 C 161.625 90.894531 161.164062 90.695312 160.625 90.464844 C 161.5 89.667969 162.878906 90.675781 163.535156 89.292969 Z M 163.535156 89.292969 " fill-opacity="1" fill-rule="nonzero"/><path fill="#39a8f4" d="M 48.300781 42.898438 C 47.777344 42.492188 46.988281 42.371094 46.585938 41.898438 C 46.253906 41.507812 46.292969 40.808594 46.183594 40.234375 C 45.480469 41.402344 44.78125 42.574219 44.070312 43.753906 C 45.9375 44.011719 47.648438 44.25 49.742188 44.542969 C 49.128906 43.824219 48.78125 43.277344 48.300781 42.898438 Z M 48.300781 42.898438 " fill-opacity="1" fill-rule="nonzero"/><path fill="#39a8f4" d="M 155.6875 96.65625 C 154.691406 95.136719 152.839844 95.945312 151.527344 95.175781 C 151.210938 94.988281 150.164062 95.339844 150.046875 95.660156 C 149.757812 96.457031 150.601562 96.554688 151.144531 96.675781 C 152.683594 97.015625 154.238281 97.300781 156.171875 97.683594 C 155.921875 97.144531 155.835938 96.878906 155.6875 96.65625 Z M 155.6875 96.65625 " fill-opacity="1" fill-rule="nonzero"/><path fill="#39a8f4" d="M 70.460938 36.875 C 69.183594 37.695312 69.582031 38.90625 69.386719 40.164062 C 69.789062 40.191406 70.027344 40.261719 70.242188 40.210938 C 71.480469 39.921875 71.925781 39.046875 71.933594 37.855469 C 71.933594 37.445312 72.1875 36.820312 72.007812 36.671875 C 71.519531 36.261719 71.046875 36.5 70.460938 36.875 Z M 70.460938 36.875 " fill-opacity="1" fill-rule="nonzero"/><path fill="#39a8f4" d="M 20.730469 65.871094 C 20.730469 66 20.726562 66.125 20.726562 66.253906 C 21.339844 66.152344 22.03125 65.828125 22.554688 66 C 23.726562 66.390625 24.984375 66.832031 25.898438 67.613281 C 26.953125 68.511719 27.851562 68.425781 29.226562 67.917969 C 26.300781 66.738281 23.902344 64.542969 20.730469 65.871094 Z M 20.730469 65.871094 " fill-opacity="1" fill-rule="nonzero"/><path fill="#39a8f4" d="M 163.121094 77.855469 C 161.65625 77.34375 161.378906 76.539062 162.214844 75.175781 C 162.613281 74.53125 162.089844 73.988281 161.132812 73.800781 C 160.4375 77.523438 160.4375 77.523438 163.390625 78.5625 C 163.246094 78.167969 163.226562 77.894531 163.121094 77.855469 Z M 163.121094 77.855469 " fill-opacity="1" fill-rule="nonzero"/><path fill="#39a8f4" d="M 30.925781 68.671875 C 30.949219 69.847656 29.992188 69.367188 29.378906 69.460938 C 29.414062 69.59375 29.449219 69.726562 29.484375 69.863281 C 31.191406 69.746094 32.902344 69.628906 34.609375 69.511719 C 34.625 69.335938 34.644531 69.160156 34.664062 68.984375 C 33.71875 68.773438 32.777344 68.515625 31.820312 68.367188 C 31.53125 68.320312 30.921875 68.570312 30.925781 68.671875 Z M 30.925781 68.671875 " fill-opacity="1" fill-rule="nonzero"/><path fill="#39a8f4" d="M 161.703125 83.210938 C 162.585938 83.949219 163.265625 84.515625 163.945312 85.078125 C 164.085938 83.976562 165.65625 83.214844 164.503906 82.1875 C 163.542969 82.539062 162.667969 82.855469 161.703125 83.210938 Z M 161.703125 83.210938 " fill-opacity="1" fill-rule="nonzero"/><path fill="#39a8f4" d="M 22.765625 26.339844 C 23.082031 26.578125 23.398438 26.8125 23.789062 27.109375 C 24.144531 26.605469 24.429688 26.207031 24.714844 25.808594 C 25.28125 26.242188 25.664062 27.089844 26.519531 26.210938 C 25.589844 25.503906 24.671875 24.808594 23.621094 24.011719 C 23.257812 25.003906 23.019531 25.652344 22.765625 26.339844 Z M 22.765625 26.339844 " fill-opacity="1" fill-rule="nonzero"/><g clip-path="url(#39fc9722a6)"><path fill="#39a8f4" d="M 149.496094 88.320312 C 148.859375 86.960938 149.546875 85.300781 148.128906 84.085938 C 146.199219 82.4375 146.375 80.410156 147.46875 77.929688 C 148.554688 79.398438 149.496094 80.660156 150.410156 81.894531 C 151.035156 81.441406 151.738281 80.90625 152.460938 80.40625 C 153.3125 79.820312 153.664062 78.957031 153.367188 78.046875 C 152.988281 76.867188 152.511719 75.664062 151.820312 74.648438 C 150.492188 72.691406 150.898438 71.394531 153.214844 70.789062 C 153.789062 71.46875 154.007812 72.09375 153.105469 72.734375 C 152.980469 72.824219 153.210938 73.414062 153.277344 73.769531 C 153.628906 73.636719 154.078125 73.589844 154.292969 73.34375 C 154.484375 73.125 154.558594 72.605469 154.429688 72.34375 C 153.875 71.191406 154.5625 70.890625 155.445312 70.550781 C 156.410156 70.175781 157.347656 69.710938 158.238281 69.1875 C 160.246094 68.003906 160.632812 65.773438 161.484375 63.871094 C 161.964844 62.800781 161.550781 61.691406 161.074219 60.667969 C 160.898438 60.289062 160.636719 59.949219 160.441406 59.578125 C 159.734375 58.226562 159.941406 57.40625 161.199219 56.53125 C 161.449219 56.355469 161.710938 56.195312 161.964844 56.027344 C 161.9375 55.910156 161.910156 55.792969 161.878906 55.675781 C 161.058594 55.675781 160.234375 55.675781 159.226562 55.675781 C 159.082031 55.417969 158.828125 54.972656 158.617188 54.601562 C 159.507812 53.820312 160.285156 53.136719 161.25 52.292969 C 161.25 53.082031 161.25 53.609375 161.25 54.125 C 161.453125 54.125 161.523438 54.144531 161.566406 54.121094 C 163.011719 53.179688 163.003906 53.179688 163.519531 54.785156 C 163.585938 54.996094 163.734375 55.285156 163.910156 55.34375 C 165.21875 55.773438 164.84375 56.820312 164.832031 57.734375 C 164.824219 58.105469 164.828125 58.472656 164.828125 59.046875 C 165.429688 58.699219 165.898438 58.425781 166.375 58.152344 C 161.949219 38.335938 150.558594 21.15625 134.902344 9.320312 C 134.664062 9.347656 134.433594 9.457031 134.203125 9.679688 C 133.703125 10.175781 133.53125 11 133.078125 11.953125 C 132.753906 11.953125 132.011719 11.835938 131.332031 11.992188 C 130.753906 12.121094 129.96875 12.445312 129.777344 12.898438 C 129.464844 13.632812 129.777344 14.4375 130.664062 14.804688 C 130.882812 14.894531 131.113281 14.992188 131.289062 15.140625 C 131.945312 15.707031 131.902344 16.726562 131.097656 17.601562 C 131.097656 16.796875 131.097656 16.121094 131.097656 15.535156 C 129.871094 14.957031 128.777344 14.441406 127.414062 13.800781 C 128.023438 14.824219 127.621094 15.277344 126.667969 15.433594 C 127.035156 15.882812 127.28125 16.179688 127.535156 16.488281 C 126.359375 17.050781 126.089844 15.957031 125.496094 15.386719 C 124.304688 16.59375 125.578125 17.695312 125.511719 18.785156 C 125.503906 18.875 126.46875 19.023438 126.671875 19.070312 C 126.441406 19.667969 126.183594 20.3125 125.945312 20.964844 C 125.769531 21.429688 125.617188 21.902344 125.457031 22.371094 C 125.175781 21.5 125.1875 20.746094 125.085938 20.015625 C 124.988281 19.332031 124.871094 18.621094 124.585938 18.007812 C 124.027344 16.816406 124.261719 15.59375 124.222656 14.371094 C 124.207031 14.003906 123.804688 13.433594 123.472656 13.34375 C 123.027344 13.21875 122.308594 13.292969 122.003906 13.585938 C 120.671875 14.894531 120.5 17.054688 121.386719 18.757812 C 121.578125 19.121094 121.542969 19.605469 121.648438 20.289062 C 119.996094 19.15625 118.714844 17.753906 116.742188 18.636719 C 116.589844 19.222656 117.195312 20.511719 115.652344 19.78125 C 115.429688 19.675781 115.082031 19.824219 114.792969 19.863281 C 114.046875 19.964844 112.996094 20.425781 112.613281 20.101562 C 111.609375 19.253906 110.890625 19.890625 110.199219 20.289062 C 109.464844 20.714844 108.871094 21.398438 108.261719 22.015625 C 108.019531 22.257812 107.910156 22.628906 107.742188 22.9375 C 107.546875 22.851562 107.355469 22.761719 107.160156 22.671875 C 107.140625 22.28125 106.996094 21.847656 107.117188 21.507812 C 107.550781 20.257812 107.460938 20.097656 105.914062 19.878906 C 105.839844 20.816406 105.769531 21.753906 105.699219 22.617188 C 105.019531 22.820312 104.289062 22.84375 103.871094 23.21875 C 103.507812 23.542969 103.492188 24.261719 103.328125 24.796875 C 102.875 24.625 102.367188 24.425781 101.578125 24.121094 C 101.882812 24.933594 102.058594 25.398438 102.230469 25.867188 C 101.609375 25.902344 100.96875 25.757812 100.828125 25.414062 C 100.355469 24.246094 99.890625 23.109375 98.796875 22.316406 C 99.863281 22.53125 100.800781 22.890625 101.761719 23.160156 C 102.722656 23.425781 103.429688 22.972656 103.804688 22.109375 C 104.148438 21.316406 103.578125 20.875 102.980469 20.53125 C 101.890625 19.90625 100.851562 19.070312 99.675781 18.753906 C 97.855469 18.261719 96.746094 16.757812 95.246094 15.957031 C 94.882812 16.160156 94.601562 16.457031 94.367188 16.425781 C 92.480469 16.164062 91.042969 17.585938 89.265625 17.769531 C 88.839844 17.816406 88.195312 18.464844 88.136719 18.902344 C 87.804688 21.300781 86.339844 23.121094 84.9375 24.503906 C 83.492188 25.933594 81.9375 27.253906 80.390625 28.570312 C 79.894531 28.992188 79.804688 29.367188 79.972656 29.976562 C 80.160156 30.648438 80.1875 31.363281 80.296875 32.058594 C 80.527344 33.542969 81.386719 33.945312 82.710938 33.214844 C 83.195312 32.945312 83.699219 32.710938 84.152344 32.480469 C 84.585938 33.507812 84.929688 34.3125 85.296875 35.171875 C 84.847656 35.453125 84.410156 35.726562 83.925781 36.027344 C 83.851562 35.203125 83.785156 34.480469 83.714844 33.667969 C 82.023438 34.914062 82.023438 34.914062 82.46875 36.675781 C 82.835938 38.136719 82.699219 38.3125 81.273438 38.664062 C 80.734375 38.796875 79.929688 39.03125 79.796875 39.414062 C 79.339844 40.710938 78.417969 40.488281 77.308594 40.5 C 77.542969 39.949219 77.714844 39.550781 77.847656 39.246094 C 77.050781 38.375 76.304688 37.628906 75.640625 36.8125 C 74.957031 35.976562 74.417969 35.054688 75.074219 33.871094 C 74.589844 33.75 74.253906 33.667969 73.921875 33.582031 C 73.949219 33.261719 73.976562 32.941406 74.003906 32.625 C 72.84375 32.402344 72.726562 33.265625 72.5 33.898438 C 71.867188 35.675781 73.03125 36.691406 74.417969 37.667969 C 72.695312 38.519531 72.984375 39.875 73.070312 41.265625 C 74.527344 41.148438 75.898438 41.039062 77.273438 40.929688 C 77.3125 41.125 77.355469 41.320312 77.398438 41.511719 C 76.675781 41.804688 75.445312 41.964844 75.328125 42.417969 C 74.988281 43.710938 73.425781 42.40625 73.257812 43.652344 C 74.347656 44.898438 76.558594 45.632812 75.507812 48 C 73.566406 48.523438 71.550781 47.261719 69.835938 48.300781 C 69.882812 49.3125 70.144531 50.164062 69.902344 50.835938 C 69.515625 51.917969 69.71875 52.8125 70.128906 53.738281 C 70.683594 53.886719 71.230469 53.945312 71.699219 54.175781 C 73.960938 55.273438 76.0625 53.828125 76.699219 52.125 C 76.898438 51.585938 77.179688 51 77.601562 50.644531 C 78.265625 50.082031 79.1875 49.796875 79.179688 48.675781 C 79.175781 48.566406 79.753906 48.28125 79.902344 48.367188 C 81.253906 49.125 82.113281 47.96875 83.234375 47.492188 C 83.546875 47.890625 83.824219 48.273438 84.132812 48.625 C 84.726562 49.292969 85.230469 50.113281 85.960938 50.554688 C 87.214844 51.304688 88.253906 52.097656 88.199219 53.8125 C 88.320312 53.78125 88.4375 53.75 88.558594 53.71875 C 88.800781 52.929688 89.046875 52.136719 89.355469 51.136719 C 89.1875 51.003906 88.761719 50.6875 88.363281 50.34375 C 87.441406 49.539062 86.488281 48.761719 85.640625 47.882812 C 85.414062 47.648438 85.527344 47.085938 85.484375 46.671875 C 86.453125 47.121094 87.003906 47.832031 87.722656 48.269531 C 89.199219 49.167969 90.621094 49.914062 90.996094 51.925781 C 91.179688 52.914062 92.183594 53.75 92.9375 54.820312 C 93.398438 54.503906 93.898438 54.160156 94.398438 53.820312 C 93.949219 53.117188 93.605469 52.582031 93.261719 52.042969 C 95.3125 50.742188 95.304688 50.746094 95.839844 52.875 C 95.953125 53.332031 96.027344 53.878906 96.324219 54.195312 C 96.878906 54.785156 97.519531 55.539062 98.230469 55.679688 C 99.460938 55.921875 100.773438 55.746094 102.144531 55.746094 C 102.183594 55.855469 102.363281 56.085938 102.339844 56.292969 C 102.238281 57.289062 102.289062 58.382812 101.859375 59.222656 C 101.648438 59.632812 100.503906 59.5625 99.78125 59.703125 C 99.546875 59.75 99.3125 59.789062 99.078125 59.835938 C 97.203125 60.203125 95.414062 60 93.734375 59.058594 C 93.472656 58.914062 93.230469 58.71875 92.949219 58.621094 C 91.988281 58.28125 91.558594 58.535156 91.273438 59.574219 C 91.199219 59.839844 91.125 60.101562 90.980469 60.628906 C 89.953125 60.175781 89.042969 59.792969 88.148438 59.375 C 87.578125 59.105469 87.054688 58.691406 86.460938 58.507812 C 85 58.058594 84.804688 57.832031 84.796875 56.175781 C 84.796875 55.824219 84.824219 55.4375 84.691406 55.128906 C 84.550781 54.804688 84.222656 54.296875 83.992188 54.304688 C 81.378906 54.402344 78.6875 53.910156 76.195312 55.097656 C 74.894531 55.714844 73.625 55.894531 72.421875 55.179688 C 71.867188 55.867188 71.507812 56.75 70.898438 56.988281 C 69.5625 57.503906 69.207031 58.414062 69.300781 59.648438 C 69.367188 60.488281 69.046875 61.117188 68.339844 61.429688 C 66.195312 62.378906 65.3125 64.382812 64.167969 66.195312 C 63.820312 66.746094 63.765625 67.140625 63.914062 67.816406 C 64.148438 68.890625 64.304688 70.167969 63.933594 71.144531 C 63.222656 73.011719 63.578125 74.371094 65.046875 75.589844 C 65.316406 75.8125 65.550781 76.128906 65.6875 76.449219 C 66.484375 78.332031 67.871094 79.664062 69.46875 80.878906 C 70.382812 81.574219 71.109375 82.324219 72.308594 81.492188 C 72.515625 81.347656 72.921875 81.347656 73.179688 81.441406 C 75.070312 82.136719 76.824219 81.410156 78.589844 80.929688 C 79.824219 80.589844 80.574219 80.796875 81.0625 81.96875 C 81.308594 82.5625 81.5625 82.8125 82.195312 82.867188 C 84.285156 83.054688 84.476562 83.34375 84.089844 85.46875 C 84.015625 85.882812 84.019531 86.320312 83.878906 86.707031 C 83.539062 87.628906 83.859375 88.335938 84.484375 88.988281 C 85.820312 90.390625 86.441406 92.199219 86.699219 94.007812 C 86.917969 95.570312 87.28125 97.207031 86.199219 98.832031 C 85.453125 99.953125 84.90625 101.519531 85.675781 102.949219 C 86.90625 105.222656 87.367188 107.632812 87.367188 110.1875 C 87.367188 110.878906 87.503906 111.644531 87.820312 112.25 C 88.636719 113.808594 89.332031 115.320312 88.867188 117.179688 C 88.628906 118.144531 89.304688 118.976562 90.144531 119.003906 C 91.316406 119.035156 92.5 119.089844 93.652344 118.933594 C 94.382812 118.835938 95.234375 118.542969 95.730469 118.039062 C 97.230469 116.527344 98.914062 115.054688 99.253906 112.792969 C 99.378906 111.964844 99.582031 111.410156 100.402344 111.222656 C 101.214844 111.03125 101.421875 110.480469 101.398438 109.742188 C 101.375 109.140625 101.414062 108.53125 101.359375 107.933594 C 101.191406 106.015625 101.742188 105.191406 103.429688 104.296875 C 104.164062 103.90625 105.113281 103.199219 105.230469 102.511719 C 105.539062 100.738281 105.921875 98.941406 105.195312 97.074219 C 104.769531 95.976562 104.679688 94.582031 104.9375 93.429688 C 105.421875 91.246094 107.101562 89.664062 108.332031 87.859375 C 108.429688 87.71875 108.632812 87.652344 108.75 87.519531 C 109.664062 86.507812 110.78125 85.605469 111.421875 84.441406 C 112.308594 82.828125 112.855469 81.023438 113.496094 79.285156 C 113.636719 78.894531 113.570312 78.421875 113.605469 77.902344 C 112.96875 78.023438 112.558594 78.085938 112.148438 78.175781 C 111.683594 78.28125 111.226562 78.425781 110.761719 78.527344 C 109.042969 78.917969 108.519531 78.554688 108.277344 76.8125 C 108.402344 76.78125 106.660156 74.988281 105.914062 74.101562 C 105.695312 73.839844 105.578125 73.484375 105.453125 73.15625 C 105.390625 72.996094 105.488281 72.730469 105.394531 72.632812 C 104.03125 71.214844 104.132812 69.175781 103.21875 67.546875 C 102.449219 66.175781 102.035156 64.605469 101.660156 62.820312 C 102.007812 62.984375 102.515625 63.050781 102.675781 63.328125 C 103.648438 64.984375 105.019531 66.480469 105.085938 68.554688 C 105.121094 69.699219 106.011719 70.292969 106.59375 71.09375 C 107.664062 72.574219 108.25 76.066406 108.316406 76.1875 C 108.523438 76.347656 108.742188 76.5 108.882812 76.671875 C 109.976562 76.429688 111.089844 76.230469 112.109375 75.804688 C 113.160156 75.363281 113.984375 74.386719 115.03125 73.921875 C 116.835938 73.117188 117.953125 71.855469 118.710938 70.039062 C 119.171875 68.929688 118.976562 68.242188 118.183594 67.523438 C 117.628906 67.019531 117.101562 66.484375 116.554688 65.953125 C 114.683594 67.210938 114.542969 67.328125 113.128906 65.613281 C 112.257812 64.550781 111.1875 63.375 111.269531 61.75 C 112.523438 61.199219 112.765625 62.121094 113.171875 62.84375 C 114.449219 65.113281 114.753906 65.257812 117.214844 64.832031 C 117.492188 65.867188 118.203125 66.324219 119.3125 66.277344 C 120.195312 66.242188 121.09375 66.433594 121.964844 66.351562 C 122.757812 66.273438 123.339844 66.367188 123.851562 67.042969 C 124.355469 67.699219 124.996094 68.246094 125.570312 68.851562 C 125.671875 68.960938 125.832031 69.195312 125.796875 69.238281 C 125.246094 69.9375 125.714844 70.488281 126.214844 70.707031 C 126.632812 70.890625 127.238281 70.632812 127.730469 70.574219 C 128.027344 74.722656 129.230469 78.605469 131.015625 82.449219 C 132.769531 81.257812 133.0625 79.699219 133.003906 77.972656 C 132.96875 76.890625 133.09375 75.984375 134.109375 75.164062 C 135.605469 73.957031 136.847656 72.429688 138.21875 71.058594 C 138.40625 70.867188 138.707031 70.773438 138.964844 70.664062 C 139.632812 70.378906 140.308594 70.109375 141.066406 69.800781 C 141.429688 71.746094 143.769531 73.023438 142.886719 75.703125 C 143.785156 75.433594 144.316406 75.277344 145.035156 75.0625 C 145.40625 76.640625 145.964844 78.179688 146.09375 79.753906 C 146.21875 81.304688 145.976562 82.800781 146.863281 84.304688 C 147.460938 85.316406 147.4375 86.695312 147.683594 87.914062 C 148.183594 88.132812 148.683594 88.347656 149.183594 88.5625 C 149.28125 88.484375 149.386719 88.402344 149.496094 88.320312 Z M 92.847656 31.746094 C 92.992188 32.652344 93.105469 33.367188 93.269531 34.375 C 92.554688 34.105469 92.15625 33.953125 91.871094 33.84375 C 91.253906 34.96875 90.886719 36.316406 90.003906 37.050781 C 89.238281 37.691406 87.902344 37.765625 86.800781 37.847656 C 86.058594 37.90625 85.25 37.59375 85.113281 36.511719 C 85.613281 36.257812 86.078125 35.925781 86.59375 35.78125 C 87.796875 35.433594 88.15625 34.609375 88.234375 33.457031 C 88.261719 33.105469 88.703125 32.761719 88.996094 32.453125 C 89.535156 31.878906 89.867188 31.363281 89.226562 30.589844 C 87.953125 29.050781 88.246094 27.398438 89.835938 26.140625 C 90.300781 25.777344 90.730469 25.226562 90.917969 24.675781 C 91.398438 23.242188 91.617188 23.082031 93.714844 23.632812 C 93.0625 24.59375 92.59375 25.390625 92.019531 26.101562 C 91.019531 27.339844 91.398438 29.929688 92.808594 30.617188 C 93.109375 30.765625 93.667969 30.496094 94.058594 30.316406 C 95.152344 29.808594 95.484375 29.871094 96.617188 31.074219 C 95.320312 31.304688 94.136719 31.515625 92.847656 31.746094 Z M 104.742188 51 C 103.925781 50.960938 103.046875 50.871094 102.328125 50.523438 C 101.316406 50.042969 100.445312 49.871094 99.445312 50.503906 C 99.074219 50.734375 98.535156 50.792969 98.078125 50.777344 C 96.71875 50.722656 96.394531 50.1875 96.9375 48.9375 C 97.40625 47.863281 97.910156 46.808594 98.574219 45.371094 C 99.296875 46.058594 99.722656 46.359375 100.015625 46.753906 C 100.796875 47.800781 100.773438 47.816406 102.121094 47.277344 C 101.835938 47.011719 101.550781 46.746094 101.109375 46.332031 C 101.988281 45.972656 102.695312 45.683594 103.554688 45.332031 C 103.359375 46.042969 103.195312 46.640625 102.992188 47.390625 C 103.757812 48 104.585938 48.585938 105.320312 49.273438 C 105.628906 49.558594 105.734375 50.0625 105.933594 50.46875 C 105.535156 50.65625 105.128906 51.019531 104.742188 51 Z M 104.742188 51 " fill-opacity="1" fill-rule="nonzero"/></g></g></g></g><path fill="#f6f6f6" d="M 74.566406 183.949219 C 74.175781 183.921875 73.796875 183.859375 73.417969 183.757812 C 73.042969 183.65625 72.679688 183.519531 72.328125 183.34375 C 71.976562 183.171875 71.648438 182.96875 71.335938 182.730469 C 71.023438 182.496094 70.738281 182.230469 70.480469 181.941406 C 70.21875 181.648438 69.988281 181.332031 69.789062 180.996094 C 69.589844 180.660156 69.421875 180.308594 69.289062 179.941406 C 69.15625 179.570312 69.0625 179.195312 69 178.808594 C 68.941406 178.421875 68.921875 178.03125 68.933594 177.640625 C 69.171875 175.003906 69.5 172.375 69.910156 169.761719 C 70.324219 167.144531 70.824219 164.546875 71.410156 161.96875 C 71.996094 159.386719 72.664062 156.828125 73.421875 154.292969 C 74.175781 151.757812 75.015625 149.25 75.9375 146.773438 C 76.859375 144.296875 77.863281 141.851562 78.949219 139.441406 C 80.035156 137.03125 81.199219 134.660156 82.441406 132.332031 C 83.683594 130 85.003906 127.710938 86.398438 125.46875 C 87.792969 123.230469 89.261719 121.035156 90.804688 118.894531 C 92.34375 116.75 93.957031 114.664062 95.636719 112.628906 C 97.316406 110.59375 99.0625 108.617188 100.875 106.703125 C 102.6875 104.785156 104.5625 102.933594 106.5 101.140625 C 108.433594 99.351562 110.429688 97.628906 112.480469 95.972656 C 114.53125 94.316406 116.632812 92.730469 118.792969 91.21875 C 120.949219 89.703125 123.152344 88.261719 125.40625 86.898438 C 127.660156 85.53125 129.957031 84.242188 132.296875 83.03125 C 134.636719 81.816406 137.015625 80.6875 139.429688 79.632812 C 141.847656 78.582031 144.296875 77.613281 146.777344 76.726562 C 149.257812 75.835938 151.765625 75.035156 154.300781 74.316406 C 156.835938 73.59375 159.390625 72.960938 161.96875 72.414062 C 164.546875 71.867188 167.140625 71.40625 169.753906 71.03125 C 172.363281 70.660156 174.980469 70.375 177.609375 70.175781 C 180.238281 69.976562 182.875 69.867188 185.511719 69.847656 C 188.148438 69.824219 190.785156 69.890625 193.417969 70.046875 C 196.050781 70.203125 198.679688 70.445312 201.296875 70.777344 C 203.917969 71.109375 206.523438 71.527344 209.113281 72.03125 C 211.707031 72.539062 214.277344 73.128906 216.832031 73.808594 C 219.382812 74.488281 221.914062 75.25 224.417969 76.097656 C 226.921875 76.945312 229.394531 77.875 231.835938 78.886719 C 234.277344 79.898438 236.683594 80.992188 239.054688 82.167969 C 241.425781 83.339844 243.757812 84.589844 246.042969 85.921875 C 248.332031 87.25 250.574219 88.652344 252.769531 90.132812 C 254.964844 91.613281 257.113281 93.164062 259.203125 94.785156 C 259.5 95.039062 259.769531 95.320312 260.011719 95.628906 C 260.257812 95.9375 260.46875 96.261719 260.648438 96.609375 C 260.828125 96.957031 260.972656 97.320312 261.082031 97.695312 C 261.191406 98.070312 261.265625 98.453125 261.300781 98.84375 C 261.335938 99.234375 261.335938 99.621094 261.296875 100.011719 C 261.257812 100.402344 261.183594 100.78125 261.070312 101.15625 C 260.957031 101.53125 260.808594 101.890625 260.628906 102.234375 C 260.445312 102.578125 260.234375 102.902344 259.988281 103.207031 L 252.179688 112.390625 C 251.929688 112.707031 251.648438 112.996094 251.335938 113.253906 C 251.027344 113.511719 250.695312 113.738281 250.339844 113.929688 C 249.988281 114.121094 249.617188 114.277344 249.230469 114.390625 C 248.84375 114.507812 248.449219 114.585938 248.046875 114.625 C 247.644531 114.660156 247.246094 114.65625 246.84375 114.613281 C 246.441406 114.570312 246.046875 114.484375 245.664062 114.363281 C 245.277344 114.238281 244.90625 114.078125 244.554688 113.878906 C 244.199219 113.683594 243.871094 113.453125 243.5625 113.1875 C 241.898438 111.933594 240.195312 110.734375 238.453125 109.589844 C 236.710938 108.445312 234.933594 107.363281 233.121094 106.335938 C 231.308594 105.3125 229.464844 104.347656 227.589844 103.441406 C 225.714844 102.539062 223.8125 101.695312 221.878906 100.917969 C 219.949219 100.140625 217.996094 99.425781 216.023438 98.777344 C 214.046875 98.128906 212.050781 97.542969 210.035156 97.027344 C 208.023438 96.511719 205.996094 96.058594 203.953125 95.675781 C 201.910156 95.292969 199.855469 94.980469 197.792969 94.730469 C 195.730469 94.484375 193.664062 94.304688 191.589844 94.195312 C 189.515625 94.085938 187.441406 94.042969 185.367188 94.070312 C 183.289062 94.097656 181.21875 94.191406 179.148438 94.355469 C 177.078125 94.519531 175.019531 94.753906 172.964844 95.054688 C 170.914062 95.355469 168.871094 95.722656 166.84375 96.160156 C 164.816406 96.59375 162.804688 97.097656 160.8125 97.667969 C 158.816406 98.234375 156.84375 98.871094 154.890625 99.570312 C 152.9375 100.269531 151.011719 101.035156 149.109375 101.863281 C 147.210938 102.691406 145.335938 103.582031 143.496094 104.53125 C 141.652344 105.484375 139.84375 106.496094 138.070312 107.570312 C 136.292969 108.640625 134.554688 109.773438 132.855469 110.960938 C 131.152344 112.148438 129.496094 113.390625 127.875 114.6875 C 126.257812 115.988281 124.683594 117.335938 123.152344 118.738281 C 121.625 120.140625 120.144531 121.59375 118.710938 123.097656 C 117.277344 124.597656 115.894531 126.144531 114.5625 127.738281 C 113.230469 129.332031 111.953125 130.96875 110.726562 132.644531 C 109.503906 134.324219 108.335938 136.042969 107.226562 137.796875 C 106.113281 139.554688 105.0625 141.347656 104.070312 143.171875 C 103.074219 145 102.144531 146.855469 101.273438 148.746094 C 100.402344 150.632812 99.59375 152.550781 98.851562 154.492188 C 98.105469 156.4375 97.425781 158.402344 96.808594 160.390625 C 96.191406 162.378906 95.644531 164.386719 95.160156 166.414062 C 94.675781 168.4375 94.257812 170.480469 93.910156 172.53125 C 93.558594 174.585938 93.277344 176.652344 93.0625 178.722656 C 93.046875 179.128906 92.992188 179.527344 92.894531 179.921875 C 92.800781 180.316406 92.664062 180.695312 92.492188 181.0625 C 92.320312 181.425781 92.113281 181.773438 91.871094 182.097656 C 91.632812 182.421875 91.359375 182.71875 91.058594 182.984375 C 90.757812 183.253906 90.433594 183.492188 90.085938 183.695312 C 89.734375 183.898438 89.371094 184.0625 88.988281 184.191406 C 88.605469 184.320312 88.214844 184.410156 87.816406 184.460938 C 87.414062 184.511719 87.011719 184.519531 86.609375 184.488281 Z M 74.566406 183.949219 " fill-opacity="1" fill-rule="nonzero"/><g fill="#004225" fill-opacity="1"><g transform="translate(86.23858, 181.777648)"><g><path d="M 0.5625 -4.503906 L 0.886719 -7.113281 L -4.765625 -7.820312 L -10.394531 -12.957031 L -10.78125 -9.84375 L -7.015625 -6.777344 L -11.421875 -4.730469 L -11.808594 -1.617188 L -5.089844 -5.210938 Z M 0.5625 -4.503906 "/></g></g></g><g fill="#004225" fill-opacity="1"><g transform="translate(88.409944, 166.365218)"><g><path d="M -2.824219 -11.527344 C -1.058594 -11.003906 0.0820312 -8.933594 -0.4375 -7.167969 C -0.960938 -5.402344 -3.046875 -4.28125 -4.8125 -4.804688 C -6.578125 -5.328125 -7.699219 -7.394531 -7.179688 -9.160156 C -6.65625 -10.925781 -4.585938 -12.050781 -2.824219 -11.527344 Z M -2.058594 -14.042969 C -5.21875 -14.980469 -8.75 -13.0625 -9.683594 -9.902344 C -10.617188 -6.742188 -8.699219 -3.214844 -5.539062 -2.277344 C -2.378906 -1.34375 1.148438 -3.261719 2.082031 -6.421875 C 3.015625 -9.582031 1.101562 -13.109375 -2.058594 -14.042969 Z M -2.058594 -14.042969 "/></g></g></g><g fill="#004225" fill-opacity="1"><g transform="translate(93.708831, 149.842656)"><g><path d="M -7.25 -12.394531 L -1.046875 -9.398438 C 0.433594 -8.683594 1.058594 -7.839844 0.273438 -6.210938 C -0.503906 -4.601562 -1.5625 -4.546875 -3.042969 -5.265625 L -9.246094 -8.257812 L -10.390625 -5.890625 L -3.839844 -2.730469 C -0.984375 -1.351562 1.292969 -2.277344 2.640625 -5.070312 C 3.988281 -7.863281 3.296875 -10.222656 0.441406 -11.601562 L -6.109375 -14.761719 Z M -7.25 -12.394531 "/></g></g></g><g fill="#004225" fill-opacity="1"><g transform="translate(100.712873, 136.142031)"><g><path d="M -4.484375 -10.402344 L -2.582031 -13.222656 L -4.558594 -14.554688 L -9.832031 -6.738281 L -7.855469 -5.40625 L -5.953125 -8.222656 L 1.949219 -2.890625 L 3.421875 -5.070312 Z M -4.484375 -10.402344 "/></g></g></g><g fill="#004225" fill-opacity="1"><g transform="translate(108.483164, 125.013957)"><g><path d="M -3.707031 -13.644531 L -0.191406 -10.449219 L -2.832031 -7.546875 L -6.347656 -10.738281 L -8.113281 -8.792969 L 0.707031 -0.777344 L 2.476562 -2.722656 L -1.066406 -5.941406 L 1.574219 -8.847656 L 5.117188 -5.628906 L 7 -7.707031 L -1.820312 -15.71875 Z M -3.707031 -13.644531 "/></g></g></g><g fill="#004225" fill-opacity="1"><g transform="translate(119.278648, 113.810508)"><g/></g></g><g fill="#004225" fill-opacity="1"><g transform="translate(125.664312, 108.259576)"><g><path d="M 5.800781 -8.71875 C 5.972656 -7.574219 5.378906 -6.3125 4.355469 -5.632812 C 2.75 -4.566406 0.554688 -5.085938 -0.570312 -6.777344 C -1.6875 -8.457031 -1.324219 -10.695312 0.28125 -11.765625 C 1.285156 -12.433594 2.648438 -12.539062 3.648438 -11.921875 L 6.085938 -13.542969 C 4.066406 -15.125 1.183594 -15.3125 -1.078125 -13.808594 C -3.894531 -11.933594 -4.664062 -8.117188 -2.789062 -5.300781 C -0.917969 -2.484375 2.898438 -1.71875 5.714844 -3.589844 C 7.976562 -5.097656 8.921875 -7.851562 8.234375 -10.339844 Z M 5.800781 -8.71875 "/></g></g></g><g fill="#004225" fill-opacity="1"><g transform="translate(139.930468, 99.21784)"><g><path d="M 1.988281 -14 L 3.957031 -9.675781 L 0.382812 -8.050781 L -1.585938 -12.371094 L -3.976562 -11.285156 L 0.957031 -0.433594 L 3.351562 -1.523438 L 1.367188 -5.878906 L 4.941406 -7.503906 L 6.925781 -3.148438 L 9.476562 -4.3125 L 4.542969 -15.160156 Z M 1.988281 -14 "/></g></g></g><g fill="#004225" fill-opacity="1"><g transform="translate(154.026151, 93.112348)"><g><path d="M 6.039062 -6.410156 L 3.136719 -5.601562 L 3.449219 -10.09375 Z M 11.550781 -3.214844 L 3.695312 -13.398438 L 1.550781 -12.800781 L 0.0859375 -0.0234375 L 2.804688 -0.78125 L 2.988281 -3.324219 L 7.359375 -4.539062 L 8.832031 -2.457031 Z M 11.550781 -3.214844 "/></g></g></g><g fill="#004225" fill-opacity="1"><g transform="translate(169.356104, 89.016658)"><g><path d="M 15.84375 -1.5 L 12.417969 -13.148438 L 9.308594 -12.855469 L 7.636719 -4.296875 L 4.371094 -12.386719 L 1.265625 -12.09375 L 0.0859375 -0.0078125 L 2.964844 -0.28125 L 3.585938 -8.597656 L 6.683594 -0.632812 L 9.25 -0.875 L 10.792969 -9.28125 L 12.964844 -1.230469 Z M 15.84375 -1.5 "/></g></g></g><g fill="#004225" fill-opacity="1"><g transform="translate(189.14497, 87.727986)"><g><path d="M 3.96875 -3.992188 L 5.804688 -3.863281 C 7.730469 -3.726562 9.542969 -5.023438 9.710938 -7.4375 C 9.867188 -9.691406 8.265625 -11.367188 6.339844 -11.503906 L 4.503906 -11.632812 L 3.859375 -11.675781 L 1.882812 -11.816406 L 1.050781 0.0742188 L 3.671875 0.257812 Z M 5.757812 -9.472656 C 6.527344 -9.417969 7.285156 -8.695312 7.210938 -7.613281 C 7.128906 -6.476562 6.28125 -5.902344 5.511719 -5.957031 L 4.113281 -6.054688 L 4.359375 -9.570312 Z M 5.757812 -9.472656 "/></g></g></g><g fill="#004225" fill-opacity="1"><g transform="translate(202.6575, 89.039141)"><g><path d="M 3.621094 0.664062 L 5.773438 -11.058594 L 3.1875 -11.53125 L 1.035156 0.191406 Z M 3.621094 0.664062 "/></g></g></g><g fill="#004225" fill-opacity="1"><g transform="translate(211.30706, 90.603555)"><g><path d="M 11.59375 -2.539062 C 11.027344 -0.785156 8.925781 0.304688 7.175781 -0.261719 C 5.425781 -0.828125 4.355469 -2.941406 4.921875 -4.691406 C 5.488281 -6.441406 7.582031 -7.515625 9.335938 -6.949219 C 11.085938 -6.386719 12.160156 -4.289062 11.59375 -2.539062 Z M 14.089844 -1.714844 C 15.101562 -4.847656 13.273438 -8.421875 10.136719 -9.4375 C 7 -10.449219 3.425781 -8.617188 2.414062 -5.484375 C 1.402344 -2.347656 3.230469 1.226562 6.367188 2.238281 C 9.503906 3.253906 13.078125 1.421875 14.089844 -1.714844 Z M 14.089844 -1.714844 "/></g></g></g><g fill="#004225" fill-opacity="1"><g transform="translate(227.691774, 96.311037)"><g><path d="M 9.261719 4.757812 L 14.707031 -5.84375 L 12.367188 -7.046875 L 8.972656 -0.4375 L 8.71875 -8.921875 L 6.382812 -10.121094 L 0.933594 0.480469 L 3.273438 1.683594 L 6.667969 -4.929688 L 6.921875 3.554688 Z M 9.261719 4.757812 "/></g></g></g><g fill="#004225" fill-opacity="1"><g transform="translate(241.232713, 103.617543)"><g><path d="M 5.691406 1.816406 C 4.640625 1.058594 4.109375 -0.125 4.882812 -1.316406 L 2.722656 -2.875 C 1.035156 -0.507812 2.222656 1.949219 4.355469 3.488281 C 6.332031 4.914062 8.96875 5.542969 10.609375 3.269531 C 13.265625 -0.410156 6.789062 -3.207031 8.03125 -4.925781 C 8.554688 -5.652344 9.597656 -5.328125 10.195312 -4.898438 C 11.257812 -4.128906 11.605469 -3.382812 10.992188 -2.289062 L 13.050781 -0.804688 C 14.570312 -3.058594 13.417969 -5.230469 11.425781 -6.667969 C 9.664062 -7.9375 7.140625 -8.335938 5.703125 -6.34375 C 3.128906 -2.777344 9.585938 0.046875 8.230469 1.921875 C 7.605469 2.789062 6.359375 2.300781 5.691406 1.816406 Z M 5.691406 1.816406 "/></g></g></g><g fill="#004225" fill-opacity="1"><g transform="translate(139.003561, 235.848023)"><g><path d="M 73.121094 -97.679688 L 73.121094 -97.125 C 82.191406 -95.726562 87.496094 -93.496094 81.074219 -83.585938 L 56.097656 -44.933594 L 31.816406 -84.984375 L 24.28125 -97.679688 L 2.09375 -97.679688 L 2.09375 -97.125 C 6.699219 -96.285156 12 -93.078125 16.886719 -84.984375 L 44.933594 -39.492188 L 44.933594 -7.953125 C 44.933594 -2.929688 40.050781 -1.394531 32.933594 -0.699219 L 32.933594 0 L 69.773438 0 L 69.773438 -0.699219 C 62.65625 -1.394531 57.773438 -2.929688 57.773438 -7.953125 L 57.773438 -42.28125 L 84.5625 -83.449219 C 90.984375 -93.214844 96.285156 -95.449219 103.960938 -97.125 L 103.960938 -97.679688 Z M 73.121094 -97.679688 "/></g></g></g><path fill="#f6f6f6" d="M 282.589844 241.050781 C 282.914062 241.273438 283.214844 241.527344 283.492188 241.8125 C 283.769531 242.09375 284.019531 242.402344 284.238281 242.730469 C 284.457031 243.0625 284.640625 243.410156 284.792969 243.777344 C 284.945312 244.144531 285.058594 244.519531 285.136719 244.90625 C 285.214844 245.296875 285.257812 245.6875 285.261719 246.082031 C 285.261719 246.476562 285.226562 246.867188 285.15625 247.257812 C 285.082031 247.644531 284.972656 248.019531 284.828125 248.386719 C 284.683594 248.753906 284.503906 249.101562 284.289062 249.429688 C 278.546875 257.386719 271.917969 264.507812 264.398438 270.800781 C 256.878906 277.09375 248.695312 282.363281 239.855469 286.613281 C 239.492188 286.765625 239.117188 286.878906 238.730469 286.960938 C 238.347656 287.039062 237.957031 287.078125 237.5625 287.082031 C 237.167969 287.085938 236.777344 287.050781 236.386719 286.980469 C 236 286.90625 235.621094 286.796875 235.253906 286.652344 C 234.886719 286.503906 234.535156 286.324219 234.203125 286.113281 C 233.867188 285.898438 233.558594 285.65625 233.269531 285.382812 C 232.984375 285.109375 232.726562 284.808594 232.496094 284.488281 C 232.265625 284.164062 232.070312 283.820312 231.90625 283.460938 L 227.117188 272.164062 C 226.945312 271.792969 226.8125 271.40625 226.71875 271.007812 C 226.621094 270.605469 226.566406 270.203125 226.554688 269.792969 C 226.539062 269.382812 226.566406 268.976562 226.632812 268.574219 C 226.703125 268.167969 226.808594 267.777344 226.957031 267.394531 C 227.101562 267.011719 227.285156 266.648438 227.503906 266.304688 C 227.726562 265.960938 227.976562 265.644531 228.261719 265.351562 C 228.546875 265.058594 228.855469 264.796875 229.191406 264.566406 C 229.53125 264.335938 229.886719 264.144531 230.265625 263.984375 C 236.863281 260.703125 242.992188 256.699219 248.640625 251.972656 C 254.292969 247.242188 259.316406 241.917969 263.707031 236 C 263.929688 235.65625 264.183594 235.339844 264.46875 235.046875 C 264.753906 234.757812 265.066406 234.496094 265.40625 234.269531 C 265.742188 234.039062 266.101562 233.847656 266.480469 233.691406 C 266.855469 233.539062 267.246094 233.421875 267.648438 233.34375 C 268.046875 233.265625 268.453125 233.230469 268.863281 233.234375 C 269.273438 233.238281 269.675781 233.285156 270.078125 233.371094 C 270.480469 233.457031 270.867188 233.582031 271.246094 233.746094 C 271.621094 233.910156 271.976562 234.109375 272.316406 234.34375 Z M 282.589844 241.050781 " fill-opacity="1" fill-rule="nonzero"/><g fill="#004225" fill-opacity="1"><g transform="translate(235.179025, 281.645761)"><g><path d="M 1.539062 -7.09375 C 3.078125 -7.472656 4.199219 -7.59375 4.90625 -7.445312 C 5.394531 -7.339844 5.75 -7.070312 5.972656 -6.632812 C 6.199219 -6.195312 6.289062 -5.789062 6.230469 -5.445312 C 6.097656 -4.550781 5.421875 -3.789062 4.238281 -3.179688 C 2.585938 -2.332031 1.363281 -2.414062 0.582031 -3.433594 L -0.695312 -2.777344 C 0.597656 -1.175781 2.410156 -0.980469 4.75 -2.183594 C 5.796875 -2.71875 6.554688 -3.386719 7.019531 -4.214844 C 7.578125 -5.191406 7.601562 -6.226562 7.054688 -7.285156 C 6.609375 -8.160156 5.921875 -8.65625 4.992188 -8.769531 C 4.335938 -8.863281 3.394531 -8.777344 2.175781 -8.503906 C 0.9375 -8.226562 0.117188 -8.097656 -0.296875 -8.101562 C -1.199219 -8.09375 -1.8125 -8.40625 -2.136719 -9.070312 C -2.3125 -9.414062 -2.402344 -9.742188 -2.355469 -10.039062 C -2.261719 -10.855469 -1.707031 -11.535156 -0.675781 -12.066406 C 0.773438 -12.808594 1.839844 -12.765625 2.523438 -11.972656 L 3.707031 -12.582031 C 2.53125 -13.910156 0.902344 -14.058594 -1.15625 -13 C -2.09375 -12.519531 -2.792969 -11.847656 -3.222656 -10.996094 C -3.667969 -10.136719 -3.648438 -9.21875 -3.136719 -8.222656 C -2.441406 -6.863281 -0.867188 -6.488281 1.539062 -7.09375 Z M 1.539062 -7.09375 "/></g></g></g><g fill="#004225" fill-opacity="1"><g transform="translate(249.024038, 274.125142)"><g><path d="M 5.140625 -10.992188 C 4.640625 -11.691406 4.039062 -12.230469 3.355469 -12.644531 C 2.671875 -13.0625 1.949219 -13.320312 1.199219 -13.433594 C 0.4375 -13.535156 -0.324219 -13.488281 -1.097656 -13.300781 C -1.882812 -13.105469 -2.628906 -12.765625 -3.316406 -12.277344 L -5.855469 -10.464844 L 1.070312 -0.765625 L 3.609375 -2.578125 C 4.292969 -3.066406 4.867188 -3.648438 5.308594 -4.328125 C 5.734375 -5 6.019531 -5.71875 6.167969 -6.472656 C 6.304688 -7.214844 6.304688 -7.96875 6.136719 -8.75 C 5.964844 -9.535156 5.648438 -10.277344 5.140625 -10.992188 Z M 4.171875 -10.296875 C 4.964844 -9.1875 5.226562 -7.972656 4.976562 -6.695312 C 4.726562 -5.417969 4.039062 -4.390625 2.925781 -3.59375 L 1.355469 -2.476562 L -4.144531 -10.179688 L -2.574219 -11.300781 C -1.460938 -12.09375 -0.253906 -12.394531 1.023438 -12.230469 C 2.324219 -12.039062 3.386719 -11.398438 4.171875 -10.296875 Z M 4.171875 -10.296875 "/></g></g></g><g fill="#004225" fill-opacity="1"><g transform="translate(262.776437, 263.850197)"><g><path d="M 5.332031 -13.175781 L 0.933594 -8.796875 L 1.6875 -8.039062 L 5.117188 -11.453125 C 5.585938 -10.460938 5.746094 -9.433594 5.558594 -8.378906 C 5.382812 -7.3125 4.894531 -6.410156 4.136719 -5.65625 C 3.167969 -4.691406 2.015625 -4.210938 0.652344 -4.210938 C -0.699219 -4.226562 -1.863281 -4.726562 -2.816406 -5.683594 C -3.765625 -6.636719 -4.246094 -7.792969 -4.246094 -9.15625 C -4.242188 -10.492188 -3.769531 -11.65625 -2.800781 -12.621094 C -2.082031 -13.339844 -1.210938 -13.785156 -0.21875 -13.957031 C 0.785156 -14.140625 1.738281 -14.027344 2.691406 -13.617188 L 3.609375 -14.53125 C 2.398438 -15.175781 1.121094 -15.390625 -0.21875 -15.195312 C -1.554688 -15 -2.746094 -14.40625 -3.753906 -13.40625 C -4.300781 -12.859375 -4.710938 -12.203125 -5.007812 -11.460938 C -5.320312 -10.707031 -5.46875 -9.9375 -5.472656 -9.144531 C -5.472656 -8.351562 -5.328125 -7.582031 -5.03125 -6.839844 C -4.722656 -6.082031 -4.265625 -5.398438 -3.671875 -4.804688 C -3.078125 -4.207031 -2.398438 -3.746094 -1.652344 -3.449219 C -0.898438 -3.136719 -0.128906 -2.988281 0.664062 -2.984375 C 1.457031 -2.984375 2.226562 -3.132812 2.980469 -3.441406 C 3.726562 -3.734375 4.40625 -4.191406 5.003906 -4.785156 C 6.023438 -5.800781 6.621094 -7.039062 6.785156 -8.511719 C 6.9375 -10 6.605469 -11.351562 5.761719 -12.566406 Z M 5.332031 -13.175781 "/></g></g></g><g fill="#004225" fill-opacity="1"><g transform="translate(276.145679, 249.615568)"><g><path d="M 0.582031 -2.585938 C 0.238281 -2.476562 -0.179688 -2.503906 -0.660156 -2.710938 L -1.441406 -1.671875 C -0.0078125 -0.925781 1.234375 -1.265625 2.308594 -2.695312 C 2.5625 -3.03125 2.765625 -3.359375 2.902344 -3.71875 C 3.039062 -4.074219 3.117188 -4.410156 3.140625 -4.765625 C 3.175781 -5.484375 2.863281 -6.089844 2.207031 -6.585938 C 1.53125 -7.089844 0.824219 -7.140625 0.03125 -6.726562 C -0.292969 -6.554688 -0.613281 -6.335938 -0.925781 -6.066406 C -1.226562 -5.808594 -1.53125 -5.578125 -1.816406 -5.375 C -2.109375 -5.15625 -2.390625 -5.019531 -2.652344 -4.929688 C -2.917969 -4.84375 -3.1875 -4.890625 -3.46875 -5.101562 C -3.746094 -5.3125 -3.875 -5.582031 -3.832031 -5.902344 C -3.804688 -6.230469 -3.671875 -6.550781 -3.453125 -6.84375 C -3.21875 -7.152344 -2.949219 -7.367188 -2.679688 -7.492188 C -2.410156 -7.617188 -2.058594 -7.617188 -1.648438 -7.464844 L -0.859375 -8.515625 C -1.570312 -8.851562 -2.207031 -8.914062 -2.738281 -8.699219 C -3.296875 -8.480469 -3.792969 -8.085938 -4.242188 -7.484375 C -4.6875 -6.894531 -4.90625 -6.25 -4.925781 -5.582031 C -4.917969 -4.921875 -4.625 -4.351562 -4.007812 -3.886719 C -3.714844 -3.664062 -3.382812 -3.550781 -3.042969 -3.535156 C -2.679688 -3.523438 -2.316406 -3.625 -1.945312 -3.828125 C -1.609375 -4.015625 -1.289062 -4.234375 -0.976562 -4.480469 C -0.671875 -4.738281 -0.367188 -4.96875 -0.0742188 -5.183594 C 0.609375 -5.65625 1.160156 -5.75 1.554688 -5.453125 C 2.226562 -4.949219 2.210938 -4.257812 1.539062 -3.359375 C 1.253906 -2.980469 0.941406 -2.710938 0.582031 -2.585938 Z M 0.582031 -2.585938 "/></g></g></g><g fill="#004225" fill-opacity="1"><g transform="translate(158.084291, 225.595884)"><g><path d="M 36.625 -57.234375 C 40.582031 -57.234375 43.820312 -56.945312 46.34375 -56.375 C 48.863281 -55.8125 51.535156 -54.8125 54.359375 -53.375 C 54.722656 -53.132812 54.945312 -52.9375 55.03125 -52.78125 C 55.125 -52.632812 55.203125 -52.171875 55.265625 -51.390625 L 56.34375 -41.125 C 56.34375 -40.945312 56.175781 -40.84375 55.84375 -40.8125 C 55.507812 -40.78125 55.316406 -40.859375 55.265625 -41.046875 C 53.941406 -46.023438 51.75 -49.757812 48.6875 -52.25 C 45.625 -54.738281 41.601562 -55.984375 36.625 -55.984375 C 31.34375 -55.984375 26.707031 -54.867188 22.71875 -52.640625 C 18.726562 -50.421875 15.640625 -47.253906 13.453125 -43.140625 C 11.265625 -39.035156 10.171875 -34.253906 10.171875 -28.796875 C 10.171875 -23.703125 11.382812 -18.945312 13.8125 -14.53125 C 16.238281 -10.125 19.507812 -6.613281 23.625 -4 C 27.738281 -1.394531 32.132812 -0.09375 36.8125 -0.09375 C 46.769531 -0.09375 53.128906 -4.984375 55.890625 -14.765625 C 55.890625 -14.878906 56.039062 -14.9375 56.34375 -14.9375 C 56.757812 -14.9375 56.96875 -14.847656 56.96875 -14.671875 L 56.25 -5.125 C 56.1875 -4.40625 56.09375 -3.957031 55.96875 -3.78125 C 55.851562 -3.601562 55.617188 -3.394531 55.265625 -3.15625 C 52.140625 -1.53125 49.210938 -0.40625 46.484375 0.21875 C 43.753906 0.851562 40.5 1.171875 36.71875 1.171875 C 30.476562 1.171875 24.910156 -0.0703125 20.015625 -2.5625 C 15.128906 -5.050781 11.304688 -8.5625 8.546875 -13.09375 C 5.785156 -17.625 4.40625 -22.828125 4.40625 -28.703125 C 4.40625 -34.347656 5.785156 -39.328125 8.546875 -43.640625 C 11.304688 -47.960938 15.128906 -51.304688 20.015625 -53.671875 C 24.910156 -56.046875 30.445312 -57.234375 36.625 -57.234375 Z M 36.625 -57.234375 "/></g></g></g></svg>